<svg xmlns="http://www.w3.org/2000/svg" viewBox="0 0 986.41 1000.0" width="986.41" height="1000.0" role="img">
  <title>Armchair II</title>
  <path fill="#DBA80D" fill-rule="evenodd" d="M113.4 25.3C106.8 31.9 95.8 43.9 89.5 53.4C83.6 62.4 78.9 72.3 75.4 82.5C71.5 94.2 67.5 110.3 65.6 123.7C63.8 136.7 63.5 150.0 64.2 163.1C65.0 177.1 67.6 194.5 70.3 208.1C72.8 220.5 76.3 232.7 80.6 244.6C85.1 257.3 90.9 271.3 97.5 284.0C104.2 296.9 120.9 321.9 120.9 321.9C120.9 321.9 42.6 333.7 24.8 337.4C20.7 338.2 17.2 341.1 14.1 344.0C10.6 347.1 6.6 351.9 4.2 356.1C2.0 360.2 0.7 365.2 0.0 369.3C-0.6 373.0 -0.5 376.8 0.0 380.5C4.1 410.8 19.4 520.0 24.8 551.1C25.8 556.9 28.5 562.5 32.3 567.0C36.4 571.8 47.3 572.9 49.2 579.7C53.0 593.1 51.8 625.1 55.3 647.6C58.9 670.8 66.4 701.2 70.8 718.8C73.7 730.6 77.5 742.1 81.5 753.5C85.8 765.6 91.0 779.4 96.5 791.5C102.0 803.4 109.3 817.1 114.8 826.1C119.0 833.1 124.5 840.4 129.3 845.8C133.6 850.6 139.3 855.7 143.9 858.5C147.6 860.8 153.4 859.4 156.5 862.2C159.6 865.0 160.0 871.5 162.6 875.4C165.1 879.1 168.1 882.8 172.0 885.2C176.7 888.1 184.3 892.6 191.2 892.7C289.1 893.9 653.9 893.5 759.6 892.7C781.7 892.5 811.2 889.5 825.7 888.0C832.8 887.3 841.2 885.4 846.8 883.8C851.1 882.5 855.8 880.4 859.0 878.2C861.7 876.1 863.9 873.2 865.5 870.2C867.2 866.9 867.6 861.0 869.3 858.5C870.5 856.6 873.7 856.8 875.4 855.2C878.1 852.5 883.3 847.1 885.7 842.1C889.6 833.7 896.3 817.9 899.3 805.1C906.7 773.0 924.2 682.4 930.2 649.5C932.7 635.6 934.3 618.9 935.3 607.3C936.1 598.3 933.3 586.8 936.3 580.1C939.1 573.7 949.0 572.4 953.1 567.5C957.1 562.7 960.0 556.7 961.1 550.6C966.6 519.3 981.9 410.1 985.9 379.6C986.5 375.5 986.3 371.4 985.5 367.4C984.6 363.2 982.9 358.5 980.8 354.7C978.7 351.1 975.9 347.7 972.8 344.9C969.7 342.1 966.2 338.8 962.0 337.9C944.1 334.0 865.0 321.9 865.0 321.9C865.0 321.9 880.3 299.1 886.6 287.3C892.9 275.5 898.4 263.2 903.0 250.7C907.8 237.7 912.1 223.2 915.2 209.5C918.2 195.9 920.3 181.6 921.3 168.2C922.2 155.3 922.1 141.9 920.8 129.3C919.6 117.0 917.1 104.2 913.8 92.8C910.5 81.8 905.7 70.4 900.7 60.9C895.9 52.0 888.8 42.6 883.3 36.1C878.8 30.6 873.1 25.7 867.9 21.6C862.9 17.6 857.6 14.1 851.9 11.2C845.9 8.2 838.1 5.2 831.8 3.3C826.0 1.6 820.0 0.4 814.0 0.0C807.4 -0.5 799.5 -0.5 792.4 0.5C785.1 1.5 777.5 3.4 770.4 6.1C763.1 8.8 755.5 12.7 748.8 16.9C742.1 21.1 737.9 30.2 730.1 31.4C705.2 35.1 643.3 37.5 599.8 38.9C554.5 40.3 505.5 41.1 458.3 39.8C401.0 38.3 295.8 35.2 256.3 30.0C242.7 28.2 232.4 13.4 221.2 8.4C211.0 3.9 197.8 1.3 188.8 0.0C181.9 -1.0 174.7 -0.5 167.8 0.5C160.7 1.4 153.2 3.4 146.7 5.6C140.5 7.8 134.4 10.8 128.9 14.1C123.4 17.3 117.9 20.8 113.4 25.3Z M496.3 771.8C496.3 771.8 505.9 783.4 509.4 790.1C513.0 797.1 517.4 807.2 518.3 814.0C519.0 819.7 516.9 825.6 514.5 830.8C511.7 837.0 501.4 851.0 501.4 851.0C501.4 851.0 492.1 842.3 488.8 837.4C485.4 832.5 482.0 827.3 481.3 821.5C480.5 815.6 482.2 808.4 484.1 802.2C486.6 794.0 496.3 771.8 496.3 771.8Z M586.7 760.1C586.7 760.1 596.8 783.8 599.3 791.9C601.0 797.4 602.6 803.2 601.7 808.8C600.7 814.4 597.2 820.7 593.7 825.7C590.3 830.7 581.1 838.8 581.1 838.8C581.1 838.8 570.2 823.2 567.5 816.8C565.3 811.7 563.9 805.9 564.7 800.4C565.5 794.1 569.0 785.9 572.6 779.3C576.3 772.6 586.7 760.1 586.7 760.1Z M416.1 760.1C416.1 760.1 426.1 772.3 429.7 778.8C433.2 785.1 436.8 792.6 437.7 799.0C438.5 805.1 437.2 811.5 434.9 817.2C432.1 823.9 421.3 838.8 421.3 838.8C421.3 838.8 410.7 828.7 407.2 823.3C404.0 818.2 401.2 812.1 400.7 806.5C400.1 800.8 402.1 795.0 403.9 789.6C406.5 781.9 416.1 760.1 416.1 760.1Z M663.1 754.0C663.1 754.0 672.7 775.7 675.3 783.5C677.1 789.1 678.9 795.5 678.5 800.8C678.2 806.2 675.8 811.4 672.9 815.8C669.5 821.1 657.9 832.7 657.9 832.7C657.9 832.7 647.1 817.7 644.3 811.2C642.0 805.6 640.8 799.3 641.5 793.3C642.2 787.3 645.3 780.5 648.5 774.6C652.1 768.0 663.1 754.0 663.1 754.0Z M339.3 754.0C339.3 754.0 350.1 767.3 353.8 774.1C357.3 780.6 360.7 788.1 361.3 794.8C361.8 801.3 359.7 807.9 357.1 814.0C354.3 820.3 344.9 832.7 344.9 832.7C344.9 832.7 334.3 822.7 330.8 817.7C327.7 813.2 325.0 808.0 324.3 802.7C323.6 797.4 324.9 791.3 326.6 785.8C329.1 777.7 339.3 754.0 339.3 754.0Z M733.4 745.1C733.4 745.1 740.6 759.8 743.2 767.6C745.8 775.3 748.8 785.1 748.8 791.5C748.9 796.6 746.4 801.7 743.7 806.0C740.2 811.4 728.2 823.8 728.2 823.8C728.2 823.8 717.4 808.9 714.6 802.2C712.3 796.6 711.0 790.1 711.8 784.0C712.7 777.6 716.3 770.1 719.8 763.8C723.4 757.3 733.4 745.1 733.4 745.1Z M269.0 745.1C269.0 745.1 278.9 756.7 282.6 763.4C286.2 770.1 290.1 778.8 291.0 785.4C291.8 791.2 290.1 797.3 287.7 802.7C285.0 809.0 274.6 823.3 274.6 823.3C274.6 823.3 264.4 814.3 261.0 809.3C257.7 804.5 254.8 798.7 254.0 793.3C253.2 788.0 254.7 782.2 256.3 776.9C258.8 768.9 269.0 745.1 269.0 745.1Z M198.2 736.2C198.2 736.2 200.4 736.7 201.0 737.6C203.5 741.0 210.0 750.4 213.2 756.8C216.3 762.9 219.6 769.8 220.2 776.0C220.9 782.0 219.3 788.3 217.0 793.8C214.2 800.2 203.8 814.4 203.8 814.4C203.8 814.4 194.2 805.8 190.7 800.8C187.3 795.9 184.1 789.9 183.2 784.4C182.4 779.0 183.9 773.3 185.6 768.0C188.1 760.0 198.2 736.2 198.2 736.2Z M804.1 735.7C804.1 735.7 813.8 757.4 816.3 765.7C818.2 772.0 820.1 779.1 819.1 785.4C818.1 791.6 813.6 798.3 810.2 803.2C807.2 807.7 799.0 814.9 799.0 814.9C799.0 814.9 788.2 799.4 785.4 793.3C783.3 788.8 781.6 783.8 782.1 778.8C782.7 772.8 785.7 764.0 789.1 757.3C792.8 750.1 804.1 735.7 804.1 735.7Z M854.3 649.5C855.1 648.7 856.6 648.9 857.5 649.5C858.6 650.2 860.0 652.0 860.4 653.7C863.0 667.1 871.9 704.0 873.5 729.6C875.5 761.7 873.3 825.8 872.5 846.3C872.4 848.8 870.0 851.8 868.8 852.9C868.0 853.6 866.4 853.0 865.5 852.4C864.6 851.8 863.2 850.5 863.2 849.1C863.1 830.8 865.4 766.4 865.0 742.3C864.9 729.6 863.3 716.9 861.3 704.3C859.0 689.9 852.2 664.7 851.0 655.6C850.7 653.3 853.2 650.5 854.3 649.5Z M252.6 384.7C253.0 383.3 254.8 380.7 256.8 380.5C276.0 378.3 335.7 373.7 367.9 371.6C395.2 369.8 424.7 368.5 449.9 367.9C472.8 367.3 495.8 367.2 518.7 367.9C543.1 368.6 570.3 370.1 596.1 372.1C622.1 374.0 652.5 377.1 674.8 379.6C693.1 381.6 719.9 385.1 729.6 386.6C730.9 386.8 732.3 387.6 732.9 388.5C733.5 389.3 733.8 390.7 733.4 391.8C732.9 392.9 731.7 395.6 730.1 395.5C711.3 394.1 656.6 386.4 620.4 383.3C584.7 380.2 549.0 377.4 513.1 376.8C475.8 376.1 435.3 377.1 396.4 379.1C354.0 381.3 281.9 388.2 258.2 389.9C256.8 390.0 254.9 389.8 254.0 388.9C253.0 388.1 252.1 386.1 252.6 384.7Z M944.2 371.6C945.6 373.9 946.3 376.5 946.6 379.1C947.0 382.7 947.0 388.5 946.6 393.2C946.0 399.9 944.9 410.7 943.3 419.4C939.2 440.7 926.1 503.8 922.2 521.1C922.0 522.1 920.9 522.9 919.9 523.0C918.3 523.1 912.8 522.0 912.8 522.0C912.8 522.0 929.8 442.5 933.9 420.3C935.9 410.0 937.4 396.5 937.7 388.9C937.9 384.2 937.2 378.2 935.8 374.9C934.7 372.2 931.7 370.7 929.2 369.3C926.7 367.9 923.7 366.9 920.8 366.4C910.7 364.9 880.6 360.7 868.8 359.9C862.5 359.5 854.3 359.9 850.0 361.8C846.5 363.3 844.0 367.4 843.0 371.1C839.9 383.1 834.0 412.5 831.3 433.5C827.5 463.4 819.0 529.2 820.1 550.6C820.4 557.6 832.9 557.6 837.9 561.9C842.7 566.0 847.0 570.9 850.0 576.4C853.2 582.0 855.4 588.9 856.6 595.6C857.8 602.3 857.5 610.7 857.1 616.7C856.8 621.6 855.7 626.6 854.3 631.2C852.9 635.8 850.6 640.7 848.6 644.3C847.0 647.4 845.0 650.3 842.5 652.8C839.3 656.1 833.9 661.2 829.0 664.5C824.0 667.8 818.6 670.3 813.0 672.4C806.9 674.8 799.5 677.3 792.4 678.5C781.4 680.5 762.2 683.3 747.0 684.2C729.4 685.2 707.0 685.1 687.0 684.6C655.3 683.8 592.1 680.4 557.2 679.5C530.6 678.8 504.0 678.1 477.5 679.0C436.0 680.5 345.0 686.7 308.3 688.4C291.3 689.1 271.0 689.2 257.3 688.8C246.8 688.5 235.6 687.6 225.9 686.0C216.7 684.6 206.3 682.1 198.7 679.5C192.1 677.2 185.4 673.9 179.9 670.1C174.7 666.5 165.9 657.0 165.9 657.0C165.9 657.0 156.7 703.6 155.6 727.3C154.1 759.2 157.2 827.9 157.0 848.6C157.0 850.0 155.5 851.3 154.2 851.5C152.8 851.6 149.1 851.4 149.0 849.6C147.8 828.3 146.3 751.2 146.7 723.5C146.9 710.2 149.3 696.6 151.4 683.7C153.3 671.1 158.6 655.9 158.9 646.2C159.0 639.0 154.0 632.5 152.8 625.6C151.5 618.8 151.2 611.8 151.4 605.0C151.5 598.2 152.0 591.4 153.7 584.8C155.4 578.2 161.8 572.2 161.7 565.1C161.4 542.6 155.0 478.4 151.8 449.4C149.7 429.9 145.4 404.2 142.9 391.3C141.6 384.5 138.6 375.5 136.8 371.6C136.0 369.8 134.0 368.7 132.1 367.9C130.3 367.0 127.8 366.6 125.6 366.4C121.0 366.2 111.5 365.8 104.5 366.4C93.9 367.4 70.7 370.5 61.9 372.1C58.3 372.7 54.1 374.4 51.5 375.8C49.5 376.9 47.2 378.3 46.4 380.5C45.2 383.6 44.3 389.5 44.5 394.1C44.9 402.4 46.5 418.3 48.7 430.2C53.1 453.8 70.8 535.6 70.8 535.6C70.8 535.6 62.3 538.4 62.3 538.4C62.3 538.4 48.0 475.6 43.6 453.1C40.4 436.9 37.3 416.0 36.1 403.9C35.3 396.3 35.8 386.0 36.6 381.0C36.9 378.3 38.6 376.0 40.3 373.9C42.0 371.8 44.3 369.6 46.9 368.3C51.2 366.2 59.7 362.6 66.5 361.3C77.6 359.3 101.6 356.5 112.9 356.1C120.2 355.9 129.1 356.9 134.5 359.0C138.9 360.6 143.0 364.1 145.3 368.3C148.2 373.8 150.6 383.8 152.3 391.8C154.5 401.8 157.0 416.3 158.4 428.8C161.4 455.8 170.1 553.9 170.1 553.9C170.1 553.9 179.0 546.0 184.2 543.1C190.1 539.8 198.3 536.4 205.7 534.2C213.5 531.9 222.5 530.2 231.0 529.1C239.9 527.9 259.1 527.2 259.1 527.2C259.1 527.2 259.1 475.5 257.7 459.2C256.9 449.2 254.0 439.3 250.7 429.7C247.3 420.1 239.2 407.1 237.6 401.6C237.0 399.6 240.9 396.4 240.9 396.4C240.9 396.4 245.2 397.2 246.5 398.8C248.4 401.0 250.7 405.8 252.1 409.6C255.2 417.5 262.1 435.9 264.8 446.6C267.0 455.4 267.7 464.6 268.0 473.8C268.6 487.1 268.0 526.7 268.0 526.7C268.0 526.7 304.6 526.8 322.9 527.6C352.3 529.0 413.1 533.3 444.7 534.7C467.3 535.6 490.0 535.7 512.7 535.6C558.4 535.5 719.3 533.7 719.3 533.7C719.3 533.7 718.9 486.6 719.3 472.8C719.5 465.4 719.9 458.0 721.6 450.8C724.2 440.3 731.6 418.7 734.8 410.0C736.2 406.0 738.9 401.0 740.9 398.8C742.2 397.2 746.5 396.4 746.5 396.4C746.5 396.4 750.3 399.3 749.8 401.1C748.1 406.7 740.0 420.3 736.6 429.7C733.4 438.8 730.4 448.2 729.6 457.8C728.2 475.2 728.2 533.7 728.2 533.7C728.2 533.7 763.6 536.2 777.4 538.4C788.9 540.2 811.2 546.9 811.2 546.9C811.2 546.9 821.5 442.3 824.7 414.7C826.1 403.5 828.6 390.5 830.8 381.4C832.6 374.2 836.0 364.9 838.3 360.4C839.7 357.7 842.6 355.7 844.9 354.3C847.0 352.9 849.4 351.7 851.9 351.5C858.2 350.9 872.6 350.0 882.8 351.0C895.5 352.2 918.6 356.7 927.8 359.0C931.6 359.9 935.4 362.5 938.1 364.6C940.6 366.5 942.8 369.2 944.2 371.6Z M855.2 148.5C856.4 151.0 858.4 156.1 857.5 159.8C856.6 163.8 852.5 169.3 849.6 172.4C846.9 175.2 843.3 177.1 839.7 178.5C835.5 180.3 829.2 180.8 824.3 182.8C817.7 185.3 800.4 194.0 800.4 194.0C800.4 194.0 825.9 158.2 833.2 150.0C835.8 146.9 841.1 145.2 844.0 144.3C846.1 143.7 848.6 144.1 850.5 144.8C852.4 145.5 854.4 146.7 855.2 148.5Z M123.2 148.5C124.2 147.2 125.4 145.9 127.0 145.3C128.9 144.6 132.0 143.7 134.5 144.3C137.5 145.0 142.3 146.6 144.8 149.5C152.1 157.8 178.1 194.0 178.1 194.0C178.1 194.0 140.7 179.8 131.2 174.3C126.5 171.6 123.1 164.6 121.4 161.2C120.2 159.0 120.6 155.8 120.9 153.7C121.2 151.8 122.2 150.0 123.2 148.5Z M772.7 123.2C774.4 122.5 776.4 123.6 777.9 124.6C779.4 125.7 780.9 127.5 781.6 129.3C783.0 132.7 785.6 139.5 786.3 144.8C787.1 150.5 787.0 157.3 786.3 163.5C785.5 170.6 781.6 187.4 781.6 187.4C781.6 187.4 779.4 174.2 777.4 167.8C775.0 160.0 768.8 147.0 767.1 140.6C766.1 137.0 766.2 132.2 767.1 129.3C768.0 126.7 770.9 124.0 772.7 123.2Z M205.7 123.2C205.7 123.2 210.3 126.5 211.3 128.9C212.4 131.2 212.2 134.5 211.8 137.3C211.3 141.0 210.1 146.8 208.5 151.4C206.7 156.7 202.5 163.7 200.6 169.6C198.7 175.3 196.8 187.0 196.8 187.0C196.8 187.0 192.9 170.0 192.1 163.1C191.5 157.2 191.2 151.1 192.1 145.3C193.1 139.4 195.5 131.6 197.8 127.9C199.4 125.3 205.7 123.2 205.7 123.2Z M830.8 41.7C834.1 43.1 839.6 46.3 842.5 49.7C845.5 53.0 847.3 57.5 848.6 61.9C850.1 66.8 851.5 73.3 851.5 79.2C851.5 86.5 850.7 97.7 848.6 105.9C846.7 113.8 843.0 121.2 839.3 128.4C835.4 136.0 830.3 144.0 825.2 151.4C819.6 159.6 811.9 170.3 805.5 177.6C800.0 184.0 787.3 195.4 787.3 195.4C787.3 195.4 793.6 174.0 794.8 165.9C795.7 159.5 795.0 153.0 794.3 146.7C793.3 138.0 789.6 124.9 789.1 113.9C788.7 102.9 789.7 89.6 791.5 80.6C792.9 73.3 796.6 65.7 799.9 60.0C802.8 54.9 807.3 49.5 811.2 46.4C814.5 43.7 819.6 42.0 822.9 41.2C825.5 40.6 828.4 40.7 830.8 41.7Z M147.6 41.7C151.3 40.6 155.7 41.1 159.3 42.2C163.0 43.3 166.8 45.5 169.6 48.3C173.1 51.6 177.1 57.2 179.9 62.3C182.8 67.4 185.2 73.0 186.5 78.7C188.1 86.2 190.1 97.7 189.8 107.3C189.3 121.7 183.5 150.3 183.7 164.9C183.9 175.4 191.2 195.4 191.2 195.4C191.2 195.4 178.8 184.3 173.4 178.1C167.3 171.0 160.0 160.8 154.6 153.2C150.0 146.6 145.2 139.9 141.5 132.6C137.2 124.1 131.3 110.7 128.9 102.2C127.0 95.4 126.9 87.5 127.0 81.1C127.1 75.2 127.8 69.0 129.3 63.7C130.9 58.6 133.3 52.9 136.4 49.2C139.2 45.7 143.8 42.9 147.6 41.7Z M723.1 37.5C723.9 36.3 726.3 37.0 727.3 38.0C728.3 38.9 729.8 41.4 729.1 43.1C727.7 47.1 721.5 55.4 718.4 61.9C714.5 69.8 709.4 80.9 706.2 90.9C701.7 104.7 694.8 129.6 691.7 144.3C689.2 155.7 688.1 167.4 687.4 179.0C686.8 190.5 687.0 202.6 687.9 213.7C688.8 224.4 690.6 235.1 693.1 245.5C695.9 257.4 699.8 272.1 704.8 284.9C711.3 301.6 723.1 328.4 732.0 345.8C739.6 360.9 753.4 381.6 757.7 389.4C758.3 390.4 758.3 391.8 757.7 392.7C757.1 393.7 755.5 395.5 754.0 395.5C752.5 395.5 750.0 394.3 748.8 392.7C745.4 388.0 738.0 376.1 733.4 367.4C725.9 353.2 711.6 325.5 703.8 307.4C697.1 291.6 691.2 274.4 687.0 258.7C683.0 243.8 679.8 228.6 678.5 213.2C677.3 197.8 677.8 181.6 679.5 165.9C681.2 149.6 684.4 132.2 688.8 115.7C693.3 99.3 700.5 80.1 706.2 67.0C710.7 56.6 719.5 42.3 723.1 37.5Z M264.3 37.5C266.3 39.3 270.1 44.7 272.3 48.7C275.5 54.7 280.8 65.0 284.0 73.6C288.9 87.0 297.6 112.1 301.8 129.3C305.5 145.0 307.7 162.8 308.8 177.1C309.8 189.7 309.7 202.5 308.3 215.1C306.9 228.9 303.9 245.3 299.9 260.1C295.8 275.2 290.4 291.1 284.0 306.0C276.2 324.1 260.7 354.3 253.0 368.8C248.6 377.2 241.3 388.7 238.1 393.2C237.0 394.6 233.4 395.5 233.4 395.5C233.4 395.5 228.2 392.4 229.1 390.3C233.1 381.4 248.8 358.7 257.3 342.1C266.0 324.9 275.4 303.7 281.6 287.3C287.0 273.1 291.8 255.6 294.8 243.7C297.0 234.5 298.7 225.0 299.4 215.6C300.3 205.0 300.6 192.1 299.9 180.4C299.1 167.8 297.7 153.0 294.8 139.6C291.3 123.9 285.4 102.3 279.3 86.2C273.6 71.3 261.4 51.2 258.2 43.1C257.5 41.4 259.1 38.9 260.1 38.0C261.1 37.0 263.2 36.6 264.3 37.5Z"/>
  <path fill="#14607F" fill-rule="evenodd" d="M498.1 791.9C498.1 791.9 491.4 810.7 490.6 815.8C490.2 818.3 492.1 820.8 493.4 822.9C495.1 825.4 500.5 830.8 500.5 830.8C500.5 830.8 505.7 823.7 507.0 820.5C508.2 817.7 509.3 814.5 508.4 811.6C507.0 806.9 498.1 791.9 498.1 791.9Z M584.8 779.8C584.8 779.8 576.1 793.9 574.5 798.5C573.5 801.3 574.3 804.6 575.4 807.4C576.8 810.8 582.5 818.7 582.5 818.7C582.5 818.7 590.4 809.4 591.8 805.5C593.0 802.3 591.8 798.5 590.9 795.2C589.7 790.9 584.8 779.8 584.8 779.8Z M418.0 779.8C418.0 779.8 412.7 792.1 411.4 796.2C410.6 798.7 410.1 801.5 410.5 804.1C410.9 806.7 412.2 809.4 413.8 811.6C415.4 814.0 420.3 818.7 420.3 818.7C420.3 818.7 425.6 811.0 426.9 807.9C428.0 805.4 429.1 802.5 428.3 799.9C426.8 795.2 418.0 779.8 418.0 779.8Z M661.2 773.7C661.2 773.7 652.4 789.6 650.9 794.3C650.1 796.7 651.3 799.4 652.3 801.8C653.6 804.8 658.9 812.6 658.9 812.6C658.9 812.6 667.4 802.8 668.7 798.5C669.9 794.7 668.0 790.6 666.8 786.8C665.6 782.6 661.2 773.7 661.2 773.7Z M341.1 773.7C341.1 773.7 336.2 784.8 335.1 789.1C334.1 792.5 332.9 796.2 334.1 799.4C335.5 803.3 343.5 812.6 343.5 812.6C343.5 812.6 349.2 804.6 350.5 801.3C351.6 798.7 352.4 795.6 351.5 792.9C349.9 788.3 341.1 773.7 341.1 773.7Z M731.5 764.8C731.5 764.8 722.7 780.2 721.2 784.9C720.4 787.5 721.5 790.4 722.6 792.9C723.9 796.0 729.1 803.7 729.1 803.7C729.1 803.7 737.6 793.2 739.0 789.1C740.1 786.0 738.6 782.5 737.6 779.3C736.3 775.2 731.5 764.8 731.5 764.8Z M270.9 764.8C270.9 764.8 265.9 776.0 264.8 780.2C263.9 783.4 262.7 787.0 263.8 790.1C265.2 794.0 273.2 803.7 273.2 803.7C273.2 803.7 278.9 795.8 280.2 792.4C281.3 789.6 282.1 786.3 281.2 783.5C279.6 778.9 270.9 764.8 270.9 764.8Z M200.1 755.9C200.1 755.9 195.2 767.1 194.0 771.3C193.1 774.5 191.9 778.1 193.1 781.2C194.5 785.1 202.4 794.8 202.4 794.8C202.4 794.8 208.1 786.9 209.5 783.5C210.6 780.6 211.4 777.1 210.4 774.1C208.8 769.5 200.1 755.9 200.1 755.9Z M802.2 755.4C802.2 755.4 793.4 770.8 791.9 775.5C791.1 778.3 792.3 781.3 793.3 784.0C794.7 787.2 799.9 794.8 799.9 794.8C799.9 794.8 808.3 784.3 809.7 780.2C810.8 777.1 809.3 773.6 808.3 770.4C807.1 766.2 802.2 755.4 802.2 755.4Z M854.3 650.0C853.2 650.9 851.2 653.5 851.5 655.6C852.7 664.6 859.4 689.9 861.8 704.3C863.8 716.9 865.3 729.6 865.5 742.3C865.8 766.4 863.1 830.8 863.6 849.1C863.7 851.1 868.8 852.4 868.8 852.4C868.8 852.4 872.0 848.6 872.1 846.3C872.8 825.8 875.0 761.7 873.0 729.6C871.4 704.0 862.5 667.0 859.9 653.7C859.6 652.3 858.5 650.6 857.5 650.0C856.6 649.3 855.1 649.2 854.3 650.0Z M253.0 384.7C252.6 385.9 253.1 387.7 254.0 388.5C254.8 389.3 256.8 389.5 258.2 389.4C281.9 387.8 354.0 380.8 396.4 378.6C435.3 376.6 475.8 375.6 513.1 376.3C549.0 377.0 584.7 379.8 620.4 382.8C656.6 386.0 711.3 393.5 730.1 395.0C731.5 395.1 732.5 392.8 732.9 391.8C733.3 390.7 733.0 389.3 732.4 388.5C731.9 387.7 730.7 387.2 729.6 387.1C717.9 385.4 684.7 380.6 662.1 378.6C627.0 375.5 554.1 370.0 518.7 368.3C495.8 367.2 472.8 367.8 449.9 368.3C426.0 368.9 400.2 370.0 375.4 371.6C343.2 373.7 277.2 378.8 256.8 381.0C255.0 381.2 253.5 383.5 253.0 384.7Z M943.8 371.6C941.9 368.9 938.4 365.0 934.9 362.7C931.3 360.4 926.7 358.5 922.2 357.5C913.5 355.7 894.6 352.4 882.8 351.5C872.6 350.6 858.2 351.4 851.9 351.9C849.4 352.1 847.0 353.4 844.9 354.7C842.7 356.1 840.2 358.0 838.8 360.4C836.8 363.6 834.4 369.2 833.2 373.9C830.9 383.0 827.0 401.0 825.2 414.7C821.5 443.6 811.2 547.3 811.2 547.3C811.2 547.3 788.9 540.8 777.4 538.9C763.5 536.6 727.7 533.7 727.7 533.7C727.7 533.7 727.7 475.2 729.1 457.8C729.9 448.2 732.9 438.8 736.2 429.7C739.5 420.3 747.6 406.6 749.3 401.1C749.8 399.5 746.5 396.9 746.5 396.9C746.5 396.9 742.5 397.4 741.3 398.8C739.5 401.0 736.7 406.0 735.2 410.0C732.0 418.7 724.7 440.3 722.1 450.8C720.4 458.0 720.0 465.4 719.8 472.8C719.3 486.7 719.3 534.2 719.3 534.2C719.3 534.2 523.9 536.6 457.8 535.6C412.8 534.9 354.5 529.5 322.9 528.1C304.6 527.3 268.0 527.2 268.0 527.2C268.0 527.2 268.2 487.2 267.6 473.8C267.1 464.6 266.5 455.4 264.3 446.6C261.6 435.9 254.7 417.5 251.6 409.6C250.2 405.8 247.8 400.9 246.0 398.8C244.8 397.4 240.9 396.9 240.9 396.9C240.9 396.9 237.5 399.9 238.1 401.6C239.8 407.1 247.9 420.6 251.2 429.7C254.2 438.2 257.0 447.0 257.7 456.0C259.1 472.2 259.6 527.2 259.6 527.2C259.6 527.2 240.0 528.3 231.0 529.5C222.5 530.7 213.5 532.3 205.7 534.7C198.3 536.9 190.1 540.4 184.2 543.6C179.0 546.3 170.1 553.9 170.1 553.9C170.1 553.9 161.0 455.8 157.9 428.8C156.5 416.3 154.0 401.8 151.8 391.8C150.1 383.8 147.7 373.7 144.8 368.3C142.7 364.3 138.8 361.0 134.5 359.4C129.2 357.5 120.2 356.4 112.9 356.6C101.6 357.0 77.6 359.7 66.5 361.8C59.7 363.0 51.2 366.8 46.9 368.8C44.5 369.9 42.4 371.9 40.8 373.9C39.1 376.0 37.4 378.3 37.0 381.0C36.3 386.0 35.8 396.3 36.6 403.9C37.7 416.0 40.9 436.8 44.0 453.1C48.3 475.5 62.3 538.0 62.3 538.0C62.3 538.0 70.3 535.6 70.3 535.6C70.3 535.6 52.6 453.8 48.3 430.2C46.1 418.3 44.4 402.4 44.0 394.1C43.8 389.5 44.7 383.6 45.9 380.5C46.9 378.1 49.3 376.6 51.5 375.4C54.2 373.9 58.3 372.2 61.9 371.6C70.7 370.0 93.9 366.9 104.5 366.0C111.5 365.4 121.0 365.7 125.6 366.0C127.8 366.1 130.2 366.4 132.1 367.4C134.1 368.3 136.4 369.6 137.3 371.6C139.2 375.6 142.1 384.5 143.4 391.3C145.9 404.2 150.2 429.9 152.3 449.4C155.4 478.4 161.8 542.6 162.1 565.1C162.2 572.2 155.9 578.2 154.2 584.8C152.5 591.4 152.0 598.2 151.8 605.0C151.7 611.8 152.0 618.8 153.2 625.6C154.5 632.5 159.5 639.0 159.3 646.2C159.1 655.9 153.8 671.1 151.8 683.7C149.8 696.6 147.3 710.2 147.1 723.5C146.8 751.2 149.5 849.6 149.5 849.6C149.5 849.6 154.2 851.0 154.2 851.0C154.2 851.0 157.0 848.1 157.0 846.3C157.1 825.7 154.9 752.3 155.1 727.3C155.2 716.8 156.8 706.3 158.4 695.9C160.2 684.2 165.9 657.5 165.9 657.5C165.9 657.5 175.9 667.0 181.3 670.6C186.7 674.1 192.6 677.0 198.7 679.0C206.1 681.5 216.7 684.1 225.9 685.6C235.6 687.1 246.8 688.1 257.3 688.4C271.0 688.8 291.3 688.7 308.3 687.9C345.0 686.3 436.0 680.0 477.5 678.5C504.0 677.6 530.6 678.3 557.2 679.0C592.1 679.9 655.3 683.4 687.0 684.2C707.0 684.7 729.4 684.7 747.0 683.7C762.2 682.8 781.4 680.0 792.4 678.1C799.5 676.8 806.9 674.3 813.0 672.0C818.6 669.8 824.1 667.2 829.0 664.0C833.8 660.8 838.9 656.0 842.1 652.8C844.5 650.3 846.5 647.4 848.2 644.3C850.1 640.7 852.4 635.8 853.8 631.2C855.2 626.6 856.3 621.6 856.6 616.7C857.0 610.7 857.3 602.3 856.1 595.6C855.0 588.9 852.6 581.9 849.6 576.4C846.6 571.0 842.5 566.3 837.9 562.3C832.9 558.0 820.0 557.8 819.6 550.6C818.4 529.1 827.0 463.4 830.8 433.5C833.5 412.5 840.1 382.5 842.5 371.1C843.0 368.9 844.1 366.7 845.4 365.0C846.6 363.5 848.1 361.8 850.0 361.3C854.0 360.4 862.5 359.0 868.8 359.4C880.6 360.2 910.7 364.4 920.8 366.0C923.7 366.4 926.7 367.3 929.2 368.8C931.8 370.3 935.0 372.0 936.3 374.9C937.8 378.2 938.3 384.2 938.1 388.9C937.8 396.5 936.4 410.0 934.4 420.3C930.2 442.4 912.8 521.6 912.8 521.6C912.8 521.6 919.9 522.5 919.9 522.5C919.9 522.5 924.8 508.3 926.4 500.9C930.3 483.8 939.6 437.4 942.8 419.4C944.4 410.7 945.6 399.9 946.1 393.2C946.5 388.5 946.5 382.7 946.1 379.1C945.8 376.5 945.2 373.8 943.8 371.6Z M854.7 148.5C854.0 146.9 852.2 145.9 850.5 145.3C848.7 144.6 846.1 144.2 844.0 144.8C841.1 145.7 836.1 148.2 833.2 150.4C830.4 152.5 828.1 155.1 826.1 157.9C822.8 162.7 818.1 172.4 813.0 179.0C807.8 185.8 794.8 198.7 794.8 198.7C794.8 198.7 808.8 189.0 816.3 185.6C823.8 182.2 834.2 180.3 839.7 178.1C843.3 176.6 846.9 174.8 849.6 172.0C852.5 168.9 856.2 163.7 857.1 159.8C857.9 156.1 855.8 151.0 854.7 148.5Z M123.7 148.5C122.8 150.8 120.6 155.7 121.4 159.3C122.1 163.2 125.5 168.4 128.4 171.5C131.2 174.5 134.9 176.5 138.7 178.1C144.2 180.3 154.0 181.9 161.2 185.1C168.6 188.5 183.2 198.2 183.2 198.2C183.2 198.2 172.0 187.5 167.3 181.3C162.1 174.6 156.0 163.2 152.3 157.9C150.2 155.0 147.7 152.1 144.8 150.0C141.8 147.8 137.5 145.5 134.5 144.8C132.0 144.2 128.8 145.1 127.0 145.7C125.6 146.2 124.3 147.2 123.7 148.5Z M772.7 123.7C771.1 124.2 768.9 126.0 768.0 127.9C767.1 130.1 766.8 133.9 767.1 136.8C767.6 140.9 769.1 147.3 770.9 152.3C772.6 157.5 776.5 162.3 777.9 167.8C779.5 174.2 780.7 190.7 780.7 190.7C780.7 190.7 785.0 171.2 785.8 163.5C786.5 157.3 786.6 150.5 785.8 144.8C785.1 139.5 782.5 132.6 781.2 129.3C780.5 127.7 779.3 126.1 777.9 125.1C776.5 124.2 774.4 123.2 772.7 123.7Z M205.7 123.7C205.7 123.7 199.7 125.5 198.2 127.9C196.0 131.5 193.5 139.4 192.6 145.3C191.7 151.1 191.9 157.2 192.6 163.1C193.5 170.6 197.8 190.7 197.8 190.7C197.8 190.7 198.4 176.2 200.1 169.6C201.8 163.2 206.2 156.7 208.1 151.4C209.6 146.8 210.9 141.0 211.3 137.3C211.7 134.5 211.8 131.1 210.9 128.9C209.9 126.6 205.7 123.7 205.7 123.7Z M830.8 42.2C828.4 41.2 825.5 41.1 822.9 41.7C819.6 42.5 814.5 44.2 811.2 46.9C807.4 49.9 803.3 55.1 800.4 60.0C797.3 65.1 794.7 71.6 792.9 77.3C791.2 82.8 790.1 88.5 789.6 94.2C789.1 100.3 789.0 107.3 789.6 113.9C790.5 122.6 793.8 138.0 794.8 146.7C795.4 153.0 795.7 159.9 795.2 165.9C794.8 171.6 793.5 177.5 791.9 182.8C790.4 187.8 785.8 197.3 785.8 197.3C785.8 197.3 799.1 184.6 805.1 177.6C811.5 169.9 819.1 159.6 824.7 151.4C829.8 144.0 834.9 136.0 838.8 128.4C842.5 121.2 846.1 112.3 848.2 105.9C849.8 100.8 851.0 95.4 851.0 90.0C851.0 82.6 849.7 68.6 848.2 61.9C847.2 57.4 845.0 53.0 842.1 49.7C839.2 46.4 834.0 43.5 830.8 42.2Z M147.6 42.2C143.9 43.3 139.6 45.9 136.8 49.2C133.9 52.8 131.1 58.5 129.8 63.7C128.2 70.2 127.4 81.1 127.5 88.1C127.5 94.0 128.5 99.9 130.3 105.4C132.7 112.9 137.8 124.6 142.0 132.6C145.7 139.8 150.4 146.6 155.1 153.2C160.4 160.8 167.6 170.7 173.9 178.1C179.7 184.9 192.6 197.3 192.6 197.3C192.6 197.3 187.6 186.3 186.0 180.9C184.5 175.7 183.0 170.3 183.2 164.9C183.8 152.7 189.0 122.2 189.3 107.3C189.5 96.6 187.1 83.5 185.1 75.4C183.7 69.6 180.2 63.5 177.6 59.0C175.4 55.3 172.7 51.5 169.6 48.7C166.7 46.1 163.0 43.7 159.3 42.6C155.7 41.5 151.4 41.1 147.6 42.2Z M723.1 38.0C719.6 42.7 711.1 56.8 706.7 67.0C701.0 80.0 693.8 99.3 689.3 115.7C684.9 132.2 681.7 149.6 679.9 165.9C678.3 181.6 677.8 197.8 679.0 213.2C680.2 228.6 683.4 243.8 687.4 258.7C691.7 274.4 697.6 291.6 704.3 307.4C712.0 325.5 726.3 353.2 733.8 367.4C738.4 376.1 745.9 388.1 749.3 392.7C750.3 394.1 752.7 395.0 754.0 395.0C755.3 395.0 756.7 393.6 757.3 392.7C757.8 391.8 757.8 390.4 757.3 389.4C753.0 381.6 739.1 360.9 731.5 345.8C722.7 328.4 710.8 301.6 704.3 284.9C699.4 272.1 695.4 257.4 692.6 245.5C690.1 235.1 688.3 224.4 687.4 213.7C686.5 202.6 686.1 190.5 687.0 179.0C688.0 165.5 690.2 147.9 693.5 132.6C696.9 117.3 703.1 99.0 707.1 87.2C710.1 78.5 714.3 69.2 717.9 61.9C721.1 55.4 727.1 47.0 728.7 43.1C729.3 41.6 728.2 39.3 727.3 38.4C726.3 37.6 723.9 36.8 723.1 38.0Z M264.3 38.0C263.2 37.0 261.1 37.8 260.1 38.4C259.1 39.1 257.7 40.5 258.2 41.7C261.5 49.7 273.9 70.8 279.8 86.2C285.8 102.2 291.3 121.6 294.8 137.3C297.9 151.5 299.5 167.4 300.4 180.4C301.1 192.1 300.8 205.0 299.9 215.6C299.1 225.0 297.5 234.5 295.2 243.7C292.3 255.6 287.5 273.1 282.1 287.3C275.9 303.7 266.5 324.9 257.7 342.1C249.3 358.7 233.7 381.5 229.6 390.3C228.8 392.2 233.4 395.0 233.4 395.0C233.4 395.0 236.7 394.4 237.6 393.2C240.8 388.8 248.1 377.2 252.6 368.8C260.2 354.3 275.7 324.1 283.5 306.0C289.9 291.1 295.4 275.2 299.4 260.1C303.4 245.3 306.4 228.9 307.9 215.1C309.2 202.5 309.3 189.7 308.3 177.1C307.2 162.8 305.1 145.0 301.3 129.3C297.2 112.1 288.4 87.0 283.5 73.6C280.4 65.0 275.0 54.7 271.8 48.7C269.7 44.9 266.2 39.7 264.3 38.0Z"/>
  <path fill="#DBA80D" fill-rule="evenodd" d="M852.9 899.7C852.4 894.2 846.8 884.3 846.8 884.3C846.8 884.3 821.0 889.6 807.9 890.8C791.2 892.4 767.0 893.5 746.5 893.6C644.0 894.1 287.6 894.2 193.1 893.6C188.4 893.6 179.5 890.3 179.5 890.3C179.5 890.3 176.9 897.1 176.7 900.7C175.8 915.3 174.1 963.4 174.3 978.0C174.4 981.6 176.1 985.2 178.1 988.3C180.2 991.5 184.3 995.3 187.0 997.2C189.0 998.6 191.5 999.5 194.0 999.5C197.2 999.5 202.7 999.1 206.2 997.2C209.7 995.3 212.9 991.9 215.1 988.3C217.9 983.6 220.4 973.4 223.1 969.1C224.9 966.0 227.9 963.7 231.0 962.0C235.0 959.9 242.7 958.1 247.0 956.0C250.5 954.1 253.9 951.7 256.8 948.9C259.7 946.2 262.3 943.0 264.3 939.6C266.9 935.0 270.2 925.7 272.7 921.7C274.3 919.2 276.9 917.1 279.3 915.7C281.5 914.2 284.1 912.8 286.8 912.8C314.5 913.4 417.4 917.1 445.6 918.9C449.4 919.2 453.0 921.2 456.0 923.6C459.2 926.3 461.5 931.5 464.9 934.9C468.2 938.2 472.4 941.5 476.1 943.8C479.6 945.9 483.4 947.5 487.3 948.5C492.0 949.6 499.0 950.6 503.7 950.8C507.8 950.9 512.0 950.4 515.9 949.4C520.3 948.3 525.9 946.4 530.0 944.2C533.9 942.1 537.6 939.4 540.8 936.3C544.5 932.5 548.8 924.9 552.5 921.7C555.3 919.3 559.1 917.7 562.8 917.5C594.4 915.9 711.2 912.4 742.3 911.9C744.7 911.9 747.2 913.0 749.3 914.2C751.7 915.7 755.0 918.0 756.8 920.8C759.5 924.9 762.5 934.0 765.2 938.6C767.4 942.2 770.5 945.8 773.2 948.5C775.7 950.9 778.5 953.0 781.6 954.5C785.8 956.7 794.4 958.8 798.5 961.1C801.6 962.8 804.6 965.1 806.5 968.1C809.2 972.7 812.6 983.9 814.9 988.3C816.2 990.7 818.3 992.7 820.5 994.4C822.7 996.0 825.4 997.4 828.0 998.1C830.6 998.8 833.4 999.0 836.0 998.6C838.6 998.2 841.2 997.2 843.5 995.8C845.8 994.4 848.1 992.5 849.6 990.2C851.5 987.0 855.0 981.8 855.2 977.0C855.7 962.0 854.3 915.2 852.9 899.7Z"/>
  <path fill="#14607F" fill-rule="evenodd" d="M496.7 772.3C496.7 772.3 488.4 790.5 485.9 798.5C483.8 805.5 481.6 814.4 481.7 820.1C481.8 824.6 484.0 828.9 486.4 832.7C489.7 837.8 501.4 850.5 501.4 850.5C501.4 850.5 511.4 836.8 514.1 830.4C516.4 824.6 518.2 818.2 517.3 812.1C516.4 805.3 511.9 796.2 508.4 789.6C505.2 783.4 496.7 772.3 496.7 772.3Z M497.7 792.4C497.7 792.4 502.8 797.7 504.7 800.8C506.6 804.0 508.4 808.3 508.9 811.6C509.3 814.6 508.6 817.7 507.5 820.5C506.2 823.7 500.9 830.8 500.9 830.8C500.9 830.8 496.4 827.8 494.8 825.7C493.0 823.2 489.9 819.5 490.2 815.8C490.6 810.3 497.7 792.4 497.7 792.4Z M586.2 760.1C586.2 760.1 577.0 772.3 573.6 778.8C570.2 785.2 566.5 792.6 565.6 799.0C564.8 805.1 566.1 811.5 568.4 817.2C571.1 823.8 581.5 838.3 581.5 838.3C581.5 838.3 591.4 828.6 594.7 823.3C597.8 818.2 600.7 812.1 601.2 806.5C601.8 800.8 599.7 795.0 597.9 789.6C595.4 781.9 586.2 760.1 586.2 760.1Z M585.3 780.2C585.3 780.2 590.2 791.0 591.4 795.2C592.3 798.5 593.0 802.3 592.3 805.5C591.6 808.7 588.9 812.2 587.2 814.4C585.8 816.2 582.0 818.7 582.0 818.7C582.0 818.7 576.3 810.8 575.0 807.4C573.9 804.6 573.4 801.4 574.0 798.5C574.7 795.1 577.3 789.8 579.2 786.8C580.8 784.2 585.3 780.2 585.3 780.2Z M416.6 760.1C416.6 760.1 406.4 783.8 403.9 791.9C402.3 797.4 401.1 803.9 401.6 808.8C402.0 813.3 404.2 817.7 406.7 821.5C410.0 826.4 421.3 838.3 421.3 838.3C421.3 838.3 431.7 823.1 434.4 816.8C436.5 811.7 438.0 805.9 437.2 800.4C436.3 794.1 432.7 786.0 429.2 779.3C425.8 772.6 416.6 760.1 416.6 760.1Z M417.5 779.8C417.5 779.8 423.6 787.2 425.5 790.5C427.1 793.4 428.5 797.0 428.8 799.9C429.1 802.6 428.4 805.4 427.4 807.9C426.0 811.0 420.8 818.7 420.8 818.7C420.8 818.7 415.1 814.0 413.3 811.6C411.7 809.4 410.4 806.7 410.0 804.1C409.6 801.5 410.2 798.7 411.0 796.2C412.2 792.1 417.5 779.8 417.5 779.8Z M662.6 754.0C662.6 754.0 652.9 767.3 649.5 774.1C646.2 780.7 642.8 788.7 642.0 794.8C641.3 800.1 642.7 805.7 644.8 810.7C647.5 817.0 658.4 832.7 658.4 832.7C658.4 832.7 667.8 822.7 671.0 817.7C674.0 813.1 676.9 808.0 677.6 802.7C678.3 797.4 676.9 791.3 675.3 785.8C672.8 777.7 662.6 754.0 662.6 754.0Z M661.7 773.7C661.7 773.7 666.0 782.6 667.3 786.8C668.4 790.6 669.8 794.8 669.2 798.5C668.5 802.2 665.3 806.5 663.5 808.8C662.2 810.5 658.4 812.6 658.4 812.6C658.4 812.6 653.2 804.8 651.8 801.8C650.8 799.4 650.0 796.8 650.4 794.3C651.0 790.8 653.7 784.6 655.6 781.2C657.1 778.3 661.7 773.7 661.7 773.7Z M339.7 754.0C339.7 754.0 330.5 775.7 328.0 783.5C326.2 789.1 324.4 795.5 324.7 800.8C325.1 806.2 327.5 811.3 330.4 815.8C333.6 821.1 344.4 832.2 344.4 832.2C344.4 832.2 354.9 817.6 357.5 811.2C359.8 805.6 361.1 799.3 360.4 793.3C359.6 787.1 356.1 779.9 352.9 773.7C349.4 767.1 339.7 754.0 339.7 754.0Z M340.7 774.1C340.7 774.1 344.6 777.2 345.8 779.3C347.7 782.4 351.1 789.2 351.9 792.9C352.6 795.6 352.0 798.7 351.0 801.3C349.7 804.6 344.0 812.6 344.0 812.6C344.0 812.6 339.8 809.8 338.3 807.9C336.6 805.7 334.3 802.6 333.6 799.4C333.0 796.3 333.7 792.5 334.6 789.1C335.8 784.9 340.7 774.1 340.7 774.1Z M732.9 745.1C732.9 745.1 724.0 756.8 720.7 763.4C717.3 770.1 713.1 778.8 712.3 785.4C711.5 791.2 713.2 797.3 715.6 802.7C718.3 809.0 728.7 823.3 728.7 823.3C728.7 823.3 738.6 812.8 741.8 807.9C744.6 803.6 747.3 798.9 747.9 793.8C748.5 788.7 747.2 782.4 745.5 776.9C743.0 768.8 732.9 745.1 732.9 745.1Z M732.0 764.8C732.0 764.8 736.8 775.2 738.1 779.3C739.0 782.5 740.0 785.9 739.5 789.1C738.9 792.3 736.6 796.1 734.8 798.5C733.2 800.6 728.7 803.7 728.7 803.7C728.7 803.7 723.4 796.0 722.1 792.9C721.1 790.4 720.4 787.6 720.7 784.9C721.1 781.9 722.7 777.8 724.5 774.6C726.3 771.2 732.0 764.8 732.0 764.8Z M269.4 745.1C269.4 745.1 260.2 766.9 257.7 774.6C256.0 780.1 254.1 786.2 254.5 791.5C254.8 796.6 256.9 801.6 259.6 806.0C262.9 811.3 274.1 823.3 274.1 823.3C274.1 823.3 284.6 808.8 287.3 802.2C289.6 796.5 290.9 790.1 290.1 784.0C289.2 777.6 285.5 770.2 282.1 763.8C278.7 757.3 269.4 745.1 269.4 745.1Z M270.4 765.2C270.4 765.2 274.0 767.7 275.1 769.4C276.9 772.5 280.7 779.7 281.6 783.5C282.3 786.4 281.8 789.6 280.7 792.4C279.4 795.8 273.7 803.7 273.7 803.7C273.7 803.7 269.9 801.2 268.5 799.4C266.8 797.2 264.1 793.3 263.4 790.1C262.7 786.9 263.4 783.4 264.3 780.2C265.5 776.1 270.4 765.2 270.4 765.2Z M198.7 736.2C198.7 736.2 189.4 757.5 187.0 765.7C185.1 772.1 183.8 780.1 184.2 785.4C184.5 789.8 186.9 793.9 189.3 797.6C192.5 802.4 203.4 814.4 203.4 814.4C203.4 814.4 213.8 799.4 216.5 793.3C218.6 788.7 220.1 783.5 219.8 778.4C219.5 773.0 217.3 766.4 214.6 761.0C211.1 754.0 198.7 736.2 198.7 736.2Z M200.1 755.9C200.1 755.9 209.2 769.5 210.9 774.1C211.9 777.1 211.1 780.6 209.9 783.5C208.6 786.9 202.9 794.8 202.9 794.8C202.9 794.8 198.5 791.3 196.8 789.1C195.1 786.9 193.1 784.1 192.6 781.2C192.0 778.2 192.6 774.5 193.5 771.3C194.8 767.1 200.1 755.9 200.1 755.9Z M803.7 735.7C803.7 735.7 793.5 750.1 790.1 756.8C787.0 762.9 783.7 769.8 783.0 776.0C782.4 782.0 783.9 788.3 786.3 793.8C789.1 800.2 799.4 814.4 799.4 814.4C799.4 814.4 809.8 803.0 813.0 798.0C815.7 793.9 818.1 789.3 818.7 784.4C819.2 779.4 817.9 773.3 816.3 768.0C813.8 759.9 803.7 735.7 803.7 735.7Z M802.7 755.9C802.7 755.9 807.6 766.3 808.8 770.4C809.8 773.6 810.8 777.0 810.2 780.2C809.6 783.5 806.8 787.6 805.1 790.1C803.7 792.0 799.9 794.8 799.9 794.8C799.9 794.8 794.3 787.2 792.9 784.0C791.7 781.4 791.0 778.4 791.5 775.5C792.0 772.2 794.3 767.1 796.2 763.8C797.9 760.8 802.7 755.9 802.7 755.9Z"/>
</svg>
